<?xml version="1.0" encoding="UTF-8"?>
<svg id="Layer_1" xmlns="http://www.w3.org/2000/svg" version="1.1" xmlns:xlink="http://www.w3.org/1999/xlink" viewBox="0 0 2000 2000">
  <!-- Generator: Adobe Illustrator 29.7.1, SVG Export Plug-In . SVG Version: 2.1.1 Build 8)  -->
  <defs>
    <style>
      .st0 {
        fill: url(#linear-gradient1);
      }

      .st1 {
        fill: #1b415d;
      }

      .st2 {
        fill: url(#linear-gradient);
      }
    </style>
    <linearGradient id="linear-gradient" x1="506.11" y1="664.25" x2="1483.44" y2="664.25" gradientUnits="userSpaceOnUse">
      <stop offset="0" stop-color="#98caa4"/>
      <stop offset=".86" stop-color="#1a415d"/>
    </linearGradient>
    <linearGradient id="linear-gradient1" x1="1075.98" y1="676.67" x2="1198.04" y2="676.67" gradientUnits="userSpaceOnUse">
      <stop offset="0" stop-color="#98caa4"/>
      <stop offset="1" stop-color="#1a415d"/>
    </linearGradient>
  </defs>
  <g>
    <path class="st2" d="M1483.44,904.1c0,31.84-27.36,57.65-61.04,57.65s-61.04-25.81-61.04-57.65c0-8.98,5.05-23.14,10.1-33.02,2.24-4.38,1.99-9.6-.58-13.79l-79.62-129.75c-.04-.07-.08-.14-.12-.21-5.73-9.72-20.32-8.38-24.9,1.93l-.04.08c-19.83,44.62-59.67,88.95-111.55,95.44-72.41,9.08-123.03-44.97-126.55-48.86-26.27-28.99-32.71-60.37-34.6-67.65-18.28-70.75,39.12-133.1,48.33-142.54.77-.79,1.62-1.47,2.55-2.07l4.71-2.99c31.67-20.21,68.48-30.92,106.05-30.92h44.78c8.31,0,14.96-7.12,14.14-15.39-2.4-24.05-16.67-69.42-88.29-85.22-12.42-2.72-25.39-1.17-36.77,4.52-12.38,6.19-23.43,14.56-32.63,24.6-9.25,10.08-16.61,21.8-21.75,34.68l-170.06,428.51c-3.22,7.36-10.37,20.46-24.77,29.74-33.89,21.92-74.42,1.3-76.81.04-.04-.04-.08-.04-.08-.08l-161.75-131.67c-3.89-3.16-9.1-3.89-13.86-2.3-6.33,2.11-13.13,3.24-20.22,3.24-33.68,0-60.99-25.77-60.99-57.61s27.32-57.65,60.99-57.65c21.42,0,40.29,10.42,51.16,26.23,11.67,14.6,15.35,34.85,8.53,53.25-.13.29-.04.59.17.75l133.41,107.18c14.1,11.29,32.13,16.9,50.03,14.47,6.11-.84,11.55-2.47,14.52-5.44,8.36-8.32,21.96-55.27,26.07-69.97.79-2.83.68-5.81-.3-8.58-37.39-104.93-74.81-209.81-112.2-314.7-.17-.46.17-.92.63-.92h48.34c6.09,0,11.51,3.89,13.45,9.66l82.87,246.23c.21.63,1.09.63,1.3,0l93.79-281.42c11.09-33.26,31.08-63.09,58.65-84.71,18.99-14.85,43.13-27.53,71.75-30.04,42.29-3.68,74.72,16.11,87.52,23.76,11.09,6.57,58.9,36.77,74.38,91.7,0,0,3.89,13.89,2.47,100.99,0,.38-.25.67-.63.71l-147,6.48c-17.78.75-34.85,7.61-47.98,19.62-23.09,21.08-52.87,63.88-17.57,117.64,54.54,83.05,143.78,30.99,164.95-15.9,6.94-15.38,14.56-30.46,25.69-43.05,1.51-1.72,3.1-3.43,4.73-5.06l1.3-1.3s.08-.04.13-.08l4.31-2.8,1.55-1.05c9.29-6.02,29.28.49,35.34,9.74l107.03,171.15c2.76,4.41,7.66,7.19,12.86,6.87,1.35-.08,2.7-.13,4.07-.13,33.68,0,61.04,25.77,61.04,57.61Z"/>
    <ellipse class="st0" cx="1137.01" cy="676.67" rx="61.03" ry="57.64"/>
  </g>
  <g>
    <path class="st1" d="M580.46,1228.88c-2.21,0-3.32-1.07-3.32-3.22v-86.33l-66.69-125.95c-.89-2.36,0-3.54,2.65-3.54h23.56c1.99,0,3.65,1.08,4.98,3.22l50.43,93.74h.66l50.1-93.74c.88-2.14,2.43-3.22,4.65-3.22h22.89c2.65,0,3.54,1.18,2.65,3.54l-66.69,125.95v86.33c0,2.15-1.11,3.22-3.32,3.22h-22.56Z"/>
    <path class="st1" d="M783.8,1228.88c-2.19,0-3.28-1.07-3.28-3.22v-13.53h-.33c-3.76,5.8-9.51,10.63-17.25,14.5-7.75,3.87-17.7,5.8-29.86,5.8-7.52,0-14.55-.97-21.07-2.91-6.53-1.94-12.17-4.85-16.92-8.73-4.76-3.88-8.52-8.73-11.28-14.54-2.77-5.82-4.15-12.6-4.15-20.36,0-16.37,5.47-28.44,16.42-36.2,10.95-7.76,26.15-11.64,45.62-11.64h36.16c1.33,0,1.99-.64,1.99-1.92v-11.19c0-10.65-2.65-18.33-7.96-23.02-5.31-4.69-15.38-7.04-30.19-7.04-9.07,0-16.59,1.02-22.56,3.06-5.97,2.04-11.28,4.67-15.93,7.89-1.99,1.5-3.54,1.4-4.65-.32l-8.96-14.82c-.89-1.72-.66-3.22.66-4.51,5.97-4.51,13.49-8.16,22.56-10.95,9.07-2.79,19.58-4.19,31.52-4.19,22.56,0,38.54,4.03,47.94,12.08,9.4,8.05,14.1,21.53,14.1,40.43v102.11c0,2.15-1.09,3.22-3.28,3.22h-19.33ZM739.53,1209.23c12.66,0,22.55-2.63,29.66-7.89,7.11-5.26,10.67-12.72,10.67-22.39v-17.07c0-1.29-.66-1.93-1.99-1.93h-32c-14,0-24.11,1.99-30.33,5.96-6.22,3.98-9.33,10.36-9.33,19.17,0,7.95,2.89,13.96,8.66,18.04,5.77,4.08,14,6.12,24.67,6.12Z"/>
    <path class="st1" d="M863.14,1228.88c-2.21,0-3.32-1.07-3.32-3.22v-212.6c0-2.14,1.1-3.22,3.32-3.22h21.23c2.21,0,3.32,1.08,3.32,3.22v79.24h.33c3.76-6.23,9.23-11.32,16.42-15.3,7.18-3.97,16.75-5.96,28.7-5.96,13.93,0,25.55,3.12,34.84,9.34,9.29,6.23,15.93,15.46,19.91,27.7,2.21,6.23,3.7,12.62,4.48,19.17.77,6.55,1.16,14.66,1.16,24.32s-.39,17.83-1.16,24.48c-.78,6.66-2.27,13.1-4.48,19.33-3.98,12.24-10.62,21.48-19.91,27.7-9.29,6.23-20.9,9.34-34.84,9.34-11.94,0-21.51-2.04-28.7-6.12-7.19-4.08-12.67-9.23-16.42-15.46h-.33v14.82c0,2.15-1.11,3.22-3.32,3.22h-21.23ZM926.51,1207.29c17.69,0,29.31-7.84,34.84-23.51,1.33-4.08,2.27-8.7,2.82-13.85.55-5.15.83-11.27.83-18.36s-.28-12.88-.83-18.04c-.55-5.15-1.49-9.88-2.82-14.17-5.53-15.46-17.14-23.19-34.84-23.19s-29.86,7.73-35.17,23.19c-1.33,3.87-2.27,8.27-2.82,13.21-.55,4.94-.83,11.27-.83,19s.27,14.12.83,19.17c.55,5.05,1.49,9.4,2.82,13.05,5.31,15.68,17.03,23.51,35.17,23.51Z"/>
    <path class="st1" d="M1041.64,1228.88c-2.21,0-3.32-1.07-3.32-3.22v-212.6c0-2.14,1.1-3.22,3.32-3.22h21.23c2.21,0,3.32,1.08,3.32,3.22v79.24h.33c3.76-6.23,9.23-11.32,16.42-15.3,7.18-3.97,16.75-5.96,28.7-5.96,13.93,0,25.55,3.12,34.84,9.34,9.29,6.23,15.93,15.46,19.91,27.7,2.21,6.23,3.7,12.62,4.48,19.17.77,6.55,1.16,14.66,1.16,24.32s-.39,17.83-1.16,24.48c-.78,6.66-2.27,13.1-4.48,19.33-3.98,12.24-10.62,21.48-19.91,27.7-9.29,6.23-20.9,9.34-34.84,9.34-11.94,0-21.51-2.04-28.7-6.12-7.19-4.08-12.67-9.23-16.42-15.46h-.33v14.82c0,2.15-1.11,3.22-3.32,3.22h-21.23ZM1105.01,1207.29c17.69,0,29.31-7.84,34.84-23.51,1.33-4.08,2.27-8.7,2.82-13.85.55-5.15.83-11.27.83-18.36s-.28-12.88-.83-18.04c-.55-5.15-1.49-9.88-2.82-14.17-5.53-15.46-17.14-23.19-34.84-23.19s-29.86,7.73-35.17,23.19c-1.33,3.87-2.27,8.27-2.82,13.21-.55,4.94-.83,11.27-.83,19s.28,14.12.83,19.17c.55,5.05,1.49,9.4,2.82,13.05,5.31,15.68,17.03,23.51,35.17,23.51Z"/>
    <path class="st1" d="M1276.21,1232.42c-16.15,0-29.69-3.59-40.64-10.79-10.95-7.19-18.64-17.56-23.06-31.08-1.77-4.94-3.1-10.41-3.98-16.43-.89-6.01-1.33-13.53-1.33-22.55s.38-16.59,1.16-22.71c.77-6.12,2.04-11.54,3.82-16.27,4.42-13.53,12.11-23.84,23.06-30.92,10.95-7.09,24.05-10.63,39.32-10.63s28.37,3.6,39.32,10.79c10.95,7.2,18.63,17.45,23.06,30.76.88,2.58,1.6,5.21,2.16,7.89.55,2.69,1.05,5.75,1.49,9.18.44,3.44.77,7.36,1,11.76.22,4.4.33,9.5.33,15.3,0,2.15-1.22,3.22-3.65,3.22h-100.53c-1.33,0-1.99.64-1.99,1.93,0,4.3.22,7.84.66,10.63.44,2.79,1.1,5.48,1.99,8.05,3.09,9.02,8.07,15.73,14.93,20.13,6.85,4.4,15.26,6.6,25.22,6.6s17.58-1.61,24.22-4.83c6.64-3.22,12.16-7.3,16.59-12.24,1.77-1.72,3.43-1.93,4.98-.64l13.6,11.92c1.54,1.29,1.66,2.79.33,4.51-6.42,7.73-14.88,14.07-25.38,19.01-10.51,4.94-22.73,7.41-36.66,7.41ZM1311.38,1138.04c1.33,0,1.99-.64,1.99-1.92,0-7.04-.78-12.79-2.32-17.27-2.65-7.67-7.13-13.58-13.44-17.74s-13.99-6.24-23.06-6.24-16.76,2.08-23.06,6.24-10.78,10.07-13.44,17.74c-1.55,4.48-2.32,10.23-2.32,17.27,0,1.28.66,1.92,1.99,1.92h73.66Z"/>
    <path class="st1" d="M1390.01,1228.88c-2.21,0-3.32-1.07-3.32-3.22v-147.85c0-2.14,1.1-3.22,3.32-3.22h21.23c2.21,0,3.32,1.08,3.32,3.22v15.78h.33c3.54-6.65,8.79-12.08,15.76-16.27s15.76-6.28,26.38-6.28c6.41,0,12.44,1.02,18.08,3.06,5.64,2.04,10.45,4.89,14.43,8.54,1.54,1.5,1.77,3.01.66,4.51l-12.28,15.78c-1.33,1.72-2.88,1.93-4.64.64-3.76-2.36-7.63-4.19-11.61-5.48-3.98-1.29-8.29-1.93-12.94-1.93-12.17,0-20.9,4.14-26.21,12.4-5.31,8.27-7.96,19.17-7.96,32.7v84.4c0,2.15-1.11,3.22-3.32,3.22h-21.23Z"/>
    <path class="st1" d="M567.43,1566.86c-1.99,0-2.99-.97-2.99-2.9v-16.82c0-1.93.99-2.9,2.99-2.9h6.87c16.13,0,24.19-8.22,24.19-24.64v-126.11c0-1.93.99-2.9,2.99-2.9h19.11c1.99,0,2.99.97,2.99,2.9v73.35c0,6.57,2.44,11.5,7.32,14.79,4.88,3.29,11.39,4.93,19.56,4.93h3.28c3.98,0,6.97.82,8.96,2.46,1.99,1.64,2.99,4.4,2.99,8.26,0,5.03-.95,8.26-2.84,9.71-1.89,1.45-4.93,2.17-9.11,2.17h-6.27c-10.35,0-18.32-3.09-23.89-9.28v19.13c0,15.66-4.08,27.54-12.24,35.66-8.17,8.12-20.11,12.18-35.83,12.18h-8.06Z"/>
    <path class="st1" d="M654.03,1509.16c-3.98,0-6.67-.82-8.06-2.46-1.39-1.64-2.09-4.49-2.09-8.55,0-4.83.65-7.97,1.94-9.42,1.3-1.45,4.03-2.17,8.21-2.17h32.85c3.98,0,6.97.77,8.96,2.32,1.99,1.55,2.99,4.35,2.99,8.41,0,4.83-.95,8.02-2.84,9.57-1.89,1.55-4.93,2.32-9.11,2.32h-32.85Z"/>
    <path class="st1" d="M687.18,1509.16c-3.98,0-6.67-.82-8.06-2.46-1.39-1.64-2.09-4.49-2.09-8.55,0-4.83.65-7.97,1.94-9.42,1.3-1.45,4.03-2.17,8.21-2.17h32.85c3.98,0,6.97.77,8.96,2.32,1.99,1.55,2.99,4.35,2.99,8.41,0,4.83-.95,8.02-2.84,9.57-1.89,1.55-4.93,2.32-9.11,2.32h-32.85Z"/>
    <path class="st1" d="M720.32,1509.16c-3.98,0-6.67-.82-8.06-2.46-1.39-1.64-2.09-4.49-2.09-8.55,0-4.83.65-7.97,1.94-9.42,1.3-1.45,4.03-2.17,8.21-2.17h32.85c3.98,0,6.97.77,8.96,2.32,1.99,1.55,2.99,4.35,2.99,8.41,0,4.83-.95,8.02-2.84,9.57-1.89,1.55-4.93,2.32-9.11,2.32h-32.85Z"/>
    <path class="st1" d="M753.47,1509.16c-3.98,0-6.67-.82-8.06-2.46-1.39-1.64-2.09-4.49-2.09-8.55,0-4.83.65-7.97,1.94-9.42,1.3-1.45,4.03-2.17,8.21-2.17h32.85c3.98,0,6.97.77,8.96,2.32,1.99,1.55,2.99,4.35,2.99,8.41,0,4.83-.95,8.02-2.84,9.57-1.89,1.55-4.93,2.32-9.11,2.32h-32.85Z"/>
    <path class="st1" d="M786.62,1509.16c-3.98,0-6.67-.82-8.06-2.46-1.39-1.64-2.09-4.49-2.09-8.55,0-4.83.65-7.97,1.94-9.42,1.3-1.45,4.03-2.17,8.21-2.17h32.85c3.98,0,6.97.77,8.96,2.32,1.99,1.55,2.99,4.35,2.99,8.41,0,4.83-.95,8.02-2.84,9.57-1.89,1.55-4.93,2.32-9.11,2.32h-32.85Z"/>
    <path class="st1" d="M819.76,1509.16c-3.98,0-6.67-.82-8.06-2.46-1.39-1.64-2.09-4.49-2.09-8.55,0-4.83.65-7.97,1.94-9.42,1.3-1.45,4.03-2.17,8.21-2.17h32.85c3.98,0,6.97.77,8.96,2.32,1.99,1.55,2.99,4.35,2.99,8.41,0,4.83-.95,8.02-2.84,9.57-1.89,1.55-4.93,2.32-9.11,2.32h-32.85Z"/>
    <path class="st1" d="M852.91,1509.16c-3.98,0-6.67-.82-8.06-2.46-1.39-1.64-2.09-4.49-2.09-8.55,0-4.83.65-7.97,1.94-9.42,1.3-1.45,4.03-2.17,8.21-2.17h32.85c3.98,0,6.97.77,8.96,2.32,1.99,1.55,2.99,4.35,2.99,8.41,0,4.83-.95,8.02-2.84,9.57-1.89,1.55-4.93,2.32-9.11,2.32h-32.85Z"/>
    <path class="st1" d="M886.05,1509.16c-3.98,0-6.67-.82-8.06-2.46-1.39-1.64-2.09-4.49-2.09-8.55,0-4.83.65-7.97,1.94-9.42,1.3-1.45,4.03-2.17,8.21-2.17h32.85c3.98,0,6.97.77,8.96,2.32,1.99,1.55,2.99,4.35,2.99,8.41,0,4.83-.95,8.02-2.84,9.57-1.89,1.55-4.93,2.32-9.11,2.32h-32.85Z"/>
    <path class="st1" d="M919.2,1509.16c-3.98,0-6.67-.82-8.06-2.46-1.39-1.64-2.09-4.49-2.09-8.55,0-4.83.65-7.97,1.94-9.42,1.3-1.45,4.03-2.17,8.21-2.17h32.85c3.98,0,6.97.77,8.96,2.32,1.99,1.55,2.99,4.35,2.99,8.41,0,4.83-.95,8.02-2.84,9.57-1.89,1.55-4.93,2.32-9.11,2.32h-32.85Z"/>
    <path class="st1" d="M952.35,1509.16c-3.98,0-6.67-.82-8.06-2.46-1.39-1.64-2.09-4.49-2.09-8.55,0-4.83.65-7.97,1.94-9.42,1.3-1.45,4.03-2.17,8.21-2.17h32.85c3.98,0,6.97.77,8.96,2.32,1.99,1.55,2.99,4.35,2.99,8.41,0,4.83-.95,8.02-2.84,9.57-1.89,1.55-4.93,2.32-9.11,2.32h-32.85Z"/>
    <path class="st1" d="M985.49,1509.16c-3.98,0-6.67-.82-8.06-2.46-1.39-1.64-2.09-4.49-2.09-8.55,0-4.83.65-7.97,1.94-9.42,1.3-1.45,4.03-2.17,8.21-2.17h32.85c3.98,0,6.97.77,8.96,2.32,1.99,1.55,2.99,4.35,2.99,8.41,0,4.83-.95,8.02-2.84,9.57-1.89,1.55-4.93,2.32-9.11,2.32h-32.85Z"/>
    <path class="st1" d="M1018.64,1509.16c-3.98,0-6.67-.82-8.06-2.46-1.39-1.64-2.09-4.49-2.09-8.55,0-4.83.65-7.97,1.94-9.42,1.3-1.45,4.03-2.17,8.21-2.17h32.85c3.98,0,6.97.77,8.96,2.32,1.99,1.55,2.99,4.35,2.99,8.41,0,4.83-.95,8.02-2.84,9.57-1.89,1.55-4.93,2.32-9.11,2.32h-32.85Z"/>
    <path class="st1" d="M1051.78,1509.16c-3.98,0-6.67-.82-8.06-2.46-1.39-1.64-2.09-4.49-2.09-8.55,0-4.83.65-7.97,1.94-9.42,1.3-1.45,4.03-2.17,8.21-2.17h32.85c3.98,0,6.97.77,8.96,2.32,1.99,1.55,2.99,4.35,2.99,8.41,0,4.83-.95,8.02-2.84,9.57-1.89,1.55-4.93,2.32-9.11,2.32h-32.85Z"/>
    <path class="st1" d="M1084.93,1509.16c-3.98,0-6.67-.82-8.06-2.46-1.39-1.64-2.09-4.49-2.09-8.55,0-4.83.65-7.97,1.94-9.42,1.3-1.45,4.03-2.17,8.21-2.17h32.85c3.98,0,6.97.77,8.96,2.32,1.99,1.55,2.99,4.35,2.99,8.41,0,4.83-.95,8.02-2.84,9.57-1.89,1.55-4.93,2.32-9.11,2.32h-32.85Z"/>
    <path class="st1" d="M1117.78,1509.16c-3.98,0-6.97-.67-8.96-2.03-1.99-1.35-2.99-4.06-2.99-8.12,0-4.83.95-8.12,2.84-9.86,1.89-1.74,4.93-2.61,9.11-2.61h18.81c4.97,0,8.61-1.11,10.9-3.33,2.29-2.22,3.43-6.23,3.43-12.03v-77.7c0-1.93.99-2.9,2.99-2.9h19.11c1.99,0,2.99.97,2.99,2.9v79.15c0,12.57-2.69,21.79-8.06,27.69-5.38,5.9-14.33,8.84-26.88,8.84h-23.29ZM1146.44,1562.22c-1.99,0-2.99-.97-2.99-2.9v-21.16c0-1.93.99-2.9,2.99-2.9h20.31c1.99,0,2.99.96,2.99,2.9v21.16c0,1.93-1,2.9-2.99,2.9h-20.31Z"/>
    <path class="st1" d="M1217.81,1314.92c0-1.93.99-2.9,2.99-2.9h19.11c1.99,0,2.99.97,2.99,2.9v156.26c0,5.8,1.14,9.81,3.43,12.03,2.29,2.22,5.92,3.33,10.9,3.33h13.14c7.96,0,11.94,3.87,11.94,11.6,0,4.83-.95,7.88-2.84,9.13-1.89,1.26-4.93,1.88-9.11,1.88h-17.62c-12.54,0-21.5-2.94-26.88-8.84-5.38-5.89-8.06-15.12-8.06-27.69v-157.71Z"/>
    <path class="st1" d="M1340.24,1407.98c-6.77,0-12.99,1.35-18.66,4.06-5.67,2.71-10.7,6.38-15.08,11.02-1.19,1.35-2.59,1.45-4.18.29l-13.14-10.44c-1.79-1.35-2.09-2.7-.9-4.06,5.57-6.76,12.49-12.37,20.75-16.82,8.26-4.44,18.37-6.67,30.31-6.67,13.74,0,24.99,2.08,33.77,6.23,8.78,4.16,15.74,9.62,20.87,16.38,5.13,6.77,8.71,14.6,10.72,23.48,2.01,8.89,3.02,18.07,3.02,27.54s-.86,17.68-2.57,24.06c-1.71,6.38-4.33,11.5-7.85,15.37-3.52,3.87-8.04,6.62-13.56,8.26-5.51,1.64-11.96,2.46-19.32,2.46h-94.06c-7.96,0-11.94-3.86-11.94-11.6,0-4.83.95-7.87,2.84-9.13,1.89-1.25,4.93-1.88,9.11-1.88h84.81c5.57,0,10.05-.43,13.44-1.3,3.38-.87,5.97-2.36,7.76-4.49,1.79-2.12,2.99-4.97,3.58-8.55.6-3.57.9-7.97.9-13.19,0-7.54-.7-14.45-2.09-20.73-1.4-6.28-3.63-11.69-6.72-16.24-3.09-4.54-7.22-8.02-12.39-10.44-5.18-2.41-11.65-3.62-19.41-3.62ZM1334.87,1562.51c-1.99,0-2.99-.97-2.99-2.9v-21.16c0-1.93.99-2.9,2.99-2.9h20.31c1.99,0,2.99.96,2.99,2.9v21.16c0,1.93-1,2.9-2.99,2.9h-20.31Z"/>
  </g>
</svg>