<?xml version="1.0" encoding="UTF-8"?>
<svg id="Layer_1" xmlns="http://www.w3.org/2000/svg" version="1.1" xmlns:xlink="http://www.w3.org/1999/xlink" viewBox="0 0 2000 2000">
  <!-- Generator: Adobe Illustrator 29.7.1, SVG Export Plug-In . SVG Version: 2.1.1 Build 8)  -->
  <defs>
    <style>
      .st0 {
        fill: url(#linear-gradient1);
      }

      .st1 {
        fill: url(#linear-gradient);
      }
    </style>
    <linearGradient id="linear-gradient" x1="253.35" y1="1000" x2="1746.65" y2="1000" gradientUnits="userSpaceOnUse">
      <stop offset="0" stop-color="#98caa4"/>
      <stop offset=".86" stop-color="#1a415d"/>
    </linearGradient>
    <linearGradient id="linear-gradient1" x1="1124.08" y1="1018.97" x2="1310.57" y2="1018.97" gradientUnits="userSpaceOnUse">
      <stop offset="0" stop-color="#98caa4"/>
      <stop offset="1" stop-color="#1a415d"/>
    </linearGradient>
  </defs>
  <path class="st1" d="M1746.65,1366.48c0,48.64-41.8,88.08-93.26,88.08s-93.26-39.44-93.26-88.08c0-13.72,7.71-35.36,15.44-50.46,3.42-6.69,3.05-14.67-.88-21.07l-121.65-198.24c-.06-.11-.12-.22-.19-.32-8.76-14.85-31.05-12.8-38.05,2.95l-.06.13c-30.3,68.18-91.18,135.92-170.44,145.82-110.65,13.87-187.99-68.71-193.36-74.66-40.14-44.3-49.99-92.24-52.86-103.36-27.93-108.09,59.78-203.37,73.85-217.79,1.18-1.21,2.47-2.25,3.9-3.16l7.2-4.57c48.39-30.87,104.64-47.24,162.04-47.24h68.42c12.7,0,22.87-10.88,21.61-23.52-3.66-36.75-25.47-106.07-134.9-130.21-18.98-4.15-38.8-1.79-56.19,6.9-18.92,9.46-35.8,22.24-49.86,37.58-14.13,15.4-25.38,33.3-33.24,52.99l-259.83,654.73c-4.92,11.25-15.85,31.26-37.84,45.45-51.78,33.49-113.71,1.98-117.36.06-.06-.06-.13-.06-.13-.13l-247.15-201.19c-5.94-4.83-13.91-5.94-21.17-3.52-9.67,3.22-20.07,4.95-30.89,4.95-51.46,0-93.2-39.37-93.2-88.02s41.74-88.08,93.2-88.08c32.73,0,61.55,15.92,78.17,40.08,17.83,22.31,23.46,53.25,13.04,81.37-.19.45-.06.89.26,1.15l203.84,163.76c21.54,17.26,49.09,25.82,76.45,22.12,9.33-1.28,17.64-3.77,22.18-8.31,12.77-12.72,33.56-84.45,39.84-106.9,1.21-4.32,1.04-8.88-.46-13.1-57.12-160.32-114.31-320.58-171.43-480.84-.26-.7.26-1.41.96-1.41h73.86c9.31,0,17.58,5.94,20.55,14.77l126.62,376.23c.32.96,1.66.96,1.98,0l143.31-429.99c16.94-50.82,47.49-96.39,89.62-129.44,29.02-22.69,65.9-42.06,109.62-45.89,64.62-5.62,114.16,24.61,133.72,36.31,16.94,10.04,90,56.19,113.65,140.11,0,0,5.94,21.22,3.77,154.3,0,.58-.38,1.02-.96,1.09l-224.61,9.91c-27.17,1.15-53.25,11.63-73.32,29.98-35.28,32.22-80.79,97.6-26.85,179.74,83.33,126.89,219.69,47.35,252.04-24.29,10.61-23.5,22.24-46.53,39.25-65.77,2.3-2.62,4.73-5.24,7.22-7.73l1.98-1.98c.06-.06.13-.06.19-.13l6.58-4.28,2.36-1.6c14.19-9.2,44.73.75,54,14.88l163.54,261.5c4.22,6.74,11.71,10.99,19.65,10.49,2.06-.13,4.13-.19,6.22-.19,51.46,0,93.26,39.37,93.26,88.02Z"/>
  <ellipse class="st0" cx="1217.33" cy="1018.97" rx="93.25" ry="88.07"/>
</svg>